<?xml version="1.0" encoding="UTF-8" standalone="no"?>
<svg
   version="1.1"
   style="display: block;"
   viewBox="0 0 1232 1968"
   width="308"
   height="492"
   preserveAspectRatio="none"
   id="svg206"
   sodipodi:docname="AIVector_ChatGPT Image Oct 22, 2025, 08_48_35 AM.svg"
   inkscape:version="1.2.1 (9c6d41e, 2022-07-14)"
   xmlns:inkscape="http://www.inkscape.org/namespaces/inkscape"
   xmlns:sodipodi="http://sodipodi.sourceforge.net/DTD/sodipodi-0.dtd"
   xmlns="http://www.w3.org/2000/svg"
   xmlns:svg="http://www.w3.org/2000/svg">
  <defs
     id="defs210" />
  <sodipodi:namedview
     id="namedview208"
     pagecolor="#ffffff"
     bordercolor="#000000"
     borderopacity="0.25"
     inkscape:showpageshadow="2"
     inkscape:pageopacity="0.0"
     inkscape:pagecheckerboard="0"
     inkscape:deskcolor="#d1d1d1"
     showgrid="false"
     inkscape:zoom="1.7825203"
     inkscape:cx="98.4561"
     inkscape:cy="246"
     inkscape:window-width="1390"
     inkscape:window-height="1027"
     inkscape:window-x="0"
     inkscape:window-y="25"
     inkscape:window-maximized="0"
     inkscape:current-layer="svg206" />
  <path
     transform="translate(0,0)"
     fill="rgb(8,165,159)"
     d="M 780.768 1037.9 C 782.377 1040.53 781.665 1046.77 781.639 1050.43 L 781.741 1422.85 L 781.706 1546.17 C 781.669 1568.22 781.247 1590.95 782.015 1612.97 C 783.458 1654.38 826.33 1680.37 853.185 1706.5 C 879.206 1731.83 908.745 1755.07 934.113 1780.78 C 900.654 1779.45 864.674 1782 831.623 1780 C 815.793 1768.03 800.971 1752.31 786.009 1739.08 C 773.739 1728.23 761.657 1716.71 749.7 1705.55 C 737.047 1693.73 727.339 1678.46 725.606 1660.93 C 723.834 1636.89 724.354 1612.13 724.35 1587.9 L 724.414 1452.58 L 724.343 1312.14 C 724.291 1291.87 723.147 1253.55 724.917 1234.57 C 752.729 1206.34 727.66 1171.86 696.749 1188.9 C 696.211 1189.34 695.682 1189.79 695.162 1190.25 C 675.767 1207.27 682.084 1220.37 696.694 1236.85 C 698.302 1271.64 697.128 1313.87 697.141 1349.33 L 697.206 1559.67 L 697.28 1633.8 C 697.319 1648.72 696.698 1664.24 698.274 1679.07 C 699.034 1686.23 700.223 1693.49 704.017 1699.71 C 713.793 1715.72 773.57 1768.81 789.991 1781.98 C 766.071 1781.37 741.892 1782.06 717.898 1782.06 C 695.327 1782.06 684.257 1774.51 668.746 1759.16 C 650.771 1741.36 636.162 1720.89 630.69 1695.78 C 626.965 1678.69 627.965 1650.97 627.98 1632.86 L 628.033 1549.98 L 628.103 1238.67 C 628.186 1226.18 628.425 1201.55 635.024 1191.72 C 649.867 1169.61 678.109 1143.01 696.677 1123.88 C 724.458 1094.98 752.489 1066.31 780.768 1037.9 z"
     id="path184" />
  <path
     transform="translate(0,0)"
     fill="rgb(8,165,159)"
     d="M 655.622 617.787 C 658.177 621.651 659.773 697.95 660.052 708.984 C 646.411 725.038 627.999 738.876 625.503 761.498 C 624.042 774.745 624.514 788.424 624.575 801.755 L 624.768 865.543 L 624.768 1056.5 C 624.828 1088.63 624.996 1120.92 624.944 1153.06 C 624.929 1162.24 614.212 1177.36 610.833 1186.88 C 607.66 1195.49 604.914 1206.05 604.579 1215.34 C 603.419 1247.46 603.984 1280.08 603.992 1312.21 L 604.018 1496.52 L 603.963 1625.82 C 603.956 1650.16 603.46 1672.07 605.938 1700.08 C 608.804 1732.48 650.048 1782.41 676.873 1796.66 C 685.352 1801.17 743.738 1799.08 757.098 1799.04 L 939.541 1799.11 L 1001.01 1799.25 C 1018.25 1799.35 1075.62 1794.1 1053.69 1833.13 C 1050.2 1839.34 1042.1 1841.93 1035.24 1842.85 C 985.573 1844.5 932.414 1842.6 882.53 1843.22 C 840.687 1843.73 796.219 1843.47 754.627 1842.52 C 701.097 1841.3 658.114 1824.34 622.457 1783.8 C 605.809 1764.87 582.027 1733.23 577.658 1707.48 C 575.483 1694.67 576.054 1674.69 576.077 1661.24 L 576.185 1595.1 L 576.13 1351.9 L 576.127 919.67 L 576.188 778.709 C 576.206 754.567 575.345 723.662 576.745 700.022 C 597.018 675.873 632.659 641.607 655.622 617.787 z"
     id="path186" />
  <path
     transform="translate(0,0)"
     fill="rgb(8,165,159)"
     d="M 524.749 907.323 C 530.539 909.087 545.581 906.503 552.034 905.494 C 550.201 971.88 551.805 1046.14 551.794 1113.25 L 551.795 1521.98 L 551.871 1650.37 C 551.886 1661.5 552.71 1704.53 550.523 1713.22 C 544.638 1736.61 511.88 1774.32 494.676 1790.78 C 445.623 1837.69 394.91 1842.55 330.779 1843.04 C 308.292 1843.17 285.804 1843.17 263.317 1843.05 L 180.532 1843.17 C 166.002 1843.19 132.896 1846.19 122.683 1836.18 C 118.522 1832.1 116.171 1826.52 116.156 1820.7 C 115.995 1794.66 156.877 1799.52 173.67 1799.53 C 193.1 1799.44 212.531 1799.53 231.96 1799.78 C 242.992 1798.62 276.02 1799.12 287.884 1799.27 C 312.834 1799.57 343.085 1798.19 367.515 1799.58 C 387.072 1778.93 459.472 1710.88 467.79 1691.8 C 475.085 1675.07 472.033 1545.25 472.029 1518.7 L 472.007 1250.08 C 472.007 1205.32 470.491 1149.27 472.573 1105.27 L 496.074 1105.05 C 498.145 1206.31 496.723 1312.13 496.716 1413.8 L 496.728 1574.22 C 496.7 1603.09 497.156 1632.04 496.36 1660.89 C 496.022 1673.13 495.579 1688.37 490.766 1699.83 C 480.211 1724.97 420.872 1778.92 398.633 1799.94 C 414.499 1799.17 429.895 1800.18 446.174 1798.93 C 465.498 1787.34 518.372 1730.23 522.013 1708.52 C 526.167 1683.75 524.822 1644.59 524.755 1618.51 L 524.668 1484.05 L 524.749 907.323 z"
     id="path188" />
  <path
     transform="translate(0,0)"
     fill="rgb(0,126,147)"
     d="M 263.317 1843.05 L 180.532 1843.17 C 166.002 1843.19 132.896 1846.19 122.683 1836.18 C 118.522 1832.1 116.171 1826.52 116.156 1820.7 C 115.995 1794.66 156.877 1799.52 173.67 1799.53 C 193.1 1799.44 212.531 1799.53 231.96 1799.78 L 233.149 1799.88 C 251.228 1801.22 273.178 1799.62 291.686 1800.2 C 298.847 1800.42 307.188 1799.71 314.203 1800.69 C 305.656 1813.06 277.773 1825.72 268.483 1839.73 C 266.427 1842.83 267.009 1841.95 263.317 1843.05 z"
     id="path190" />
  <path
     transform="translate(0,0)"
     fill="rgb(0,126,147)"
     d="M 67.218 1868.39 C 124.463 1866.65 189.3 1868.14 246.983 1868.15 L 587.431 1868.17 L 941.317 1868.15 C 1000.88 1868.14 1060.66 1868.07 1120.23 1868.21 C 1124.63 1868.22 1128.95 1869.08 1132.79 1871.34 C 1137.71 1874.27 1141.19 1879.11 1142.41 1884.71 C 1143.76 1890.63 1142.69 1896.84 1139.43 1901.96 C 1135.82 1907.65 1131.42 1910.28 1125.07 1911.76 C 1074.88 1913.43 1013.61 1911.9 962.671 1911.9 L 642.044 1911.91 L 258.752 1911.91 C 195.274 1911.91 131.795 1911.97 68.3182 1911.9 C 57.7398 1911.89 49.9192 1905.42 48.0965 1894.95 C 46.9178 1888.39 48.4512 1881.64 52.3453 1876.24 C 56.5474 1870.48 60.7447 1869.39 67.218 1868.39 z"
     id="path192" />
  <path
     transform="translate(0,0)"
     fill="rgb(0,126,147)"
     d="M 450.077 1340.7 C 450.915 1341.17 451.113 1341.25 451.116 1341.71 C 451.786 1443.2 453.087 1545.31 450.797 1647.12 C 450.042 1680.66 409.071 1711.53 387.394 1734.47 C 375.29 1747.28 355.515 1768.22 342.031 1778.81 C 317.535 1780.68 287.155 1779.63 261.768 1780.44 C 261.448 1780.43 260.799 1779.89 260.445 1779.65 C 265.054 1770.59 277.34 1760.85 284.638 1753.57 C 305.199 1733.07 378.42 1664.75 386.833 1643.45 C 394.275 1624.6 391.921 1600.55 391.917 1580.63 L 391.84 1475.6 C 391.752 1386.48 389.403 1402.99 450.077 1340.7 z"
     id="path194" />
  <path
     transform="translate(0,0)"
     fill="rgb(8,165,159)"
     d="M 722.54 692.597 C 724.72 695.734 724.391 719.34 724.569 725.014 C 727.976 832.819 729.045 940.686 727.775 1048.54 C 721.502 1056.55 711.552 1066.12 704.219 1073.58 C 689.869 1087.94 675.74 1102.53 661.837 1117.33 L 660.365 1118.44 C 659.095 1116.58 660.107 1070.5 660.107 1063.85 L 660.065 869.207 C 660.057 835.203 659.158 795.885 660.428 762.284 C 665.17 755.089 673.647 746.544 679.466 740.002 C 693.425 724.312 709.562 709.018 722.54 692.597 z"
     id="path196" />
  <path
     transform="translate(0,0)"
     fill="rgb(8,165,159)"
     d="M 619.234 61.8519 C 621.986 65.2835 621.891 67.2058 622.08 71.7246 C 623.987 117.216 627.39 162.558 630.721 207.962 L 656.557 572.915 C 644.306 588.758 609.998 622.875 594.975 638.329 C 588.994 644.509 582.313 650.859 576.153 656.933 C 578.327 638.994 579.331 617.509 580.639 599.278 L 587.547 504.981 L 610.439 188.13 C 612.485 162.527 614.374 136.912 616.106 111.286 C 616.627 102.306 617.611 67.6002 619.234 61.8519 z"
     id="path198" />
  <path
     transform="translate(0,0)"
     fill="rgb(8,165,159)"
     d="M 557.285 1779.09 C 575.012 1774.73 592.896 1785.65 597.116 1803.41 C 601.335 1821.17 590.274 1838.97 572.48 1843.05 C 554.884 1847.09 537.327 1836.17 533.154 1818.61 C 528.981 1801.05 539.754 1783.4 557.285 1779.09 z"
     id="path200" />
  <path
     transform="translate(0,0)"
     fill="rgb(0,126,147)"
     d="M 472.573 1105.27 C 428.325 1085.35 458.19 1029.69 496.502 1048.73 C 520.692 1060.76 520.756 1091.83 496.074 1105.05 L 472.573 1105.27 z"
     id="path202" />
  <path
     transform="translate(0,0)"
     fill="rgb(0,126,147)"
     d="M 524.749 907.323 C 503.419 899.039 497.742 871.022 512.137 857.994 C 541.874 831.081 589.569 868.521 552.034 905.494 C 545.581 906.503 530.539 909.087 524.749 907.323 z"
     id="path204" />
</svg>
